<?xml version="1.0" encoding="UTF-8" standalone="no"?>
<svg width="795px" height="138px" viewBox="0 0 795 138" version="1.1" xmlns="http://www.w3.org/2000/svg" xmlns:xlink="http://www.w3.org/1999/xlink" xmlns:sketch="http://www.bohemiancoding.com/sketch/ns">
    <!-- Generator: Sketch 3.0.1 (7597) - http://www.bohemiancoding.com/sketch -->
    <title>pyrocumulus</title>
    <description>Created with Sketch.</description>
    <defs></defs>
    <g id="Page-1" stroke="none" stroke-width="1" fill="none" fill-rule="evenodd" sketch:type="MSPage">
        <g id="Fechado" sketch:type="MSLayerGroup">
            <path d="M50.2573438,70.3009056 C49.816325,69.9569344 49.3857813,69.6033105 48.9661698,69.2404247 C48.7183911,69.0799648 48.5598421,69 48.5598421,69 L48.6912939,69 C42.6914786,63.6923606 39,56.4647984 39,48.5 C39,32.2075991 54.4461752,19 73.5,19 C92.5538248,19 108,32.2075991 108,48.5 C108,50.3709952 107.796298,52.2013084 107.406822,53.9756088 C112.211535,51.4372041 117.687929,50 123.5,50 C142.553825,50 158,65.4461752 158,84.5 C158,102.028687 144.927598,116.504149 128,118.709181 L128,119 L39,119 L39,118.993553 C38.8338413,118.997843 38.6671663,119 38.5,119 C27.7304468,119 19,110.045696 19,99 C19,87.9543045 27.7304468,79 38.5,79 C40.6525601,79 42.7236582,79.3577232 44.6598642,80.0183694 C46.3533691,80.3679933 49.5569065,80.4494606 51.2467585,76.7412543 C52.6394964,73.6850342 51.4620113,71.5447351 50.2573438,70.3009056 Z M39,137.9969 C17.4151712,137.729143 0,120.148338 0,98.5 C0,83.2207868 8.67522205,69.9677815 21.3687536,63.3978966 C19.8287878,58.8453949 19,54.0105226 19,49 C19,21.9380459 43.176622,0 73,0 C94.9742897,0 113.882983,11.9100605 122.313892,29.0043089 C122.542256,29.0014391 122.770962,29 123,29 C152.823378,29 177,53.4004796 177,83.5 C177,111.898085 155.479389,135.223219 128,137.769477 L128,138 L39,138 L39,137.9969 Z" id="cloud-3" fill="#00B3FF" sketch:type="MSShapeGroup"></path>
            <path d="M78.124618,113.90307 C72.0258176,112.653022 69.0272408,110.102924 66.9943073,106.252776 C65.4187839,103.50267 64.7580805,98.9524956 64.7580805,92.5522497 C64.7580805,87.252046 55,84.0019211 55,79.001729 C60.2348036,78.9017252 65.0121972,80.1517732 67.3500707,83.6019058 L67.8074807,80.6517924 C68.5190074,75.1515811 68.8747708,72.051462 68.8747708,71.401437 C68.8747708,67.7512968 67.705834,64.7511815 65.3171372,62.4010912 C69.6879442,63.1011181 72.5848743,65.9012257 73.9571044,70.801414 L74.2620444,70.801414 L75.4818045,66.7012564 C76.3966245,63.4011296 76.8540346,61.1010413 76.8540346,59.8509932 C76.8540346,55.7008338 76.0916845,52.1006955 74.5161611,49.0505783 C77.3622679,50.3006263 79.8017881,52.5507127 81.8347215,55.8008376 C82.9528349,53.9007646 83.5118916,51.4506705 83.5118916,48.4005533 C83.5118916,47.6505245 83.4102449,46.5504822 83.2069516,45.1004265 C83.0036582,43.7003727 82.9528349,42.8003381 82.9020116,42.4003228 C82.9020116,38.0501556 83.8168316,35.3000499 85.6972951,34 C87.0187018,40.5002497 89.5598686,46.4004764 93.3207955,51.8006839 L96.6751357,62.7011027 L96.8276057,62.7011027 L96.8276057,61.6510624 L96.8276057,59.1509663 L96.9800757,57.4008991 C96.9800757,55.1508126 96.3193723,52.8007223 94.8963189,50.3506282 C96.6751357,50.7506436 98.5555991,52.1006955 100.436063,54.4507857 C102.011586,56.4008607 103.078876,58.4009375 103.841226,60.3510124 C105.111809,63.9511508 105.72169,67.7512968 105.72169,71.6514466 L105.72169,76.9516503 L105.87416,76.9516503 C107.957916,73.5515196 109.07603,70.7014101 109.07603,68.4513237 C109.07603,67.1512737 108.720266,66.0512315 108.00874,65.051193 C111.97296,67.3012795 111.261433,71.7514505 111.261433,78.4517079 C111.261433,78.6517156 111.108963,80.1017713 110.804023,82.851877 L110.804023,88.7521037 C111.82049,87.902071 114.310833,85.2519692 119.698107,76.501633 C120.96869,82.7518731 117.817644,88.8521075 117.817644,91.5022093 C117.76682,97.6524456 114.158363,103.052653 110.702376,107.152811 C106.94145,111.652984 101.960763,113.90307 95.7603156,113.90307 C93.5240888,113.90307 91.0337454,113.353049 88.2892852,112.303009 C91.3895087,111.30297 94.4389089,109.052884 97.2850157,105.602751 C100.181946,102.152619 101.757469,98.9024936 102.062409,95.8023745 L97.1325457,100.652561 L98.8605391,96.7024091 C99.7753592,94.5523265 100.232769,92.5522497 100.232769,90.8021824 C100.232769,89.152119 100.029476,88.0020748 99.6737125,87.4020518 C99.4704192,89.5021325 98.0981891,91.8522228 95.6078456,94.5023246 L93.2699721,97.7024475 C92.9650321,97.402436 92.7617388,96.9024168 92.7617388,96.1023861 C92.7617388,95.2023515 93.1175021,93.9023015 93.8290288,92.1522343 C94.5405555,90.3521651 94.8963189,88.9521113 94.8963189,87.8520691 C94.8963189,86.4020134 94.3372622,84.3519346 93.2191488,81.7018328 L90.6271587,76.9516503 L90.4746887,76.9516503 L90.4746887,84.1519269 C90.4746887,87.252046 90.1189253,89.5521344 89.4073986,91.0021901 L87.8318752,95.8523765 C87.6285818,94.3523188 87.1203485,93.1522727 86.3071751,92.2022362 C84.934945,90.9521882 84.020125,88.8521075 83.5118916,85.9519961 L83.4102449,85.9519961 C82.4446015,88.2020825 81.9871915,90.8521843 81.9871915,93.9023015 C81.9871915,97.0524226 83.1053049,100.252546 85.392355,103.602674 C80.9707248,102.902647 77.972148,98.5024783 76.3458012,90.3521651 L76.1933312,90.3521651 C75.0752178,93.3022785 74.5161611,96.2023899 74.5161611,99.0524994 C74.5161611,102.002613 75.5326278,104.80272 77.6672079,107.502824 C79.7509647,110.202928 82.1904849,111.952995 85.087415,112.753026 C83.4102449,113.803066 81.0723715,114.203082 78.124618,113.90307 L78.124618,113.90307 Z" id="Shape-2" fill="#FFA400" sketch:type="MSShapeGroup"></path>
            <path d="M217.422857,37.2857143 C203.175238,37.2857143 191.647619,48.8133333 191.647619,62.9314286 L191.647619,79.5104762 C191.647619,85.5980952 196.44,90.3904762 202.398095,90.3904762 C208.485714,90.3904762 213.148571,85.5980952 213.148571,79.5104762 L213.148571,63.4495238 C213.148571,61.1180952 214.961905,59.3047619 217.293333,59.3047619 C219.624762,59.3047619 221.438095,61.1180952 221.438095,63.4495238 L221.438095,89.3542857 C221.438095,91.6857143 219.624762,93.3695238 217.293333,93.3695238 L208.874286,93.3695238 C199.289524,93.3695238 191.647619,101.270476 191.647619,110.984762 L191.647619,126.268571 C191.647619,132.226667 196.569524,137.148571 202.527619,137.148571 C208.615238,137.148571 213.148571,132.097143 213.148571,126.268571 L213.148571,119.144762 C213.148571,117.072381 214.832381,115 217.16381,115 L225.712381,115 C235.426667,115 243.068571,107.228571 243.068571,97.5142857 L243.068571,62.9314286 C243.068571,48.8133333 231.8,37.2857143 217.422857,37.2857143 Z M297.986667,48.0361905 C297.986667,42.0780952 293.194286,37.2857143 287.106667,37.2857143 C281.278095,37.2857143 276.35619,41.9485714 276.35619,48.0361905 L276.35619,89.2247619 C276.35619,91.4266667 274.413333,93.3695238 272.211429,93.3695238 C269.88,93.3695238 267.937143,91.4266667 267.937143,89.2247619 L267.937143,48.0361905 C267.937143,42.0780952 263.144762,37.2857143 257.057143,37.2857143 C251.228571,37.2857143 246.306667,41.9485714 246.306667,48.0361905 L246.306667,97.7733333 C246.306667,107.617143 254.207619,115.259048 263.662857,115.259048 C268.84381,115.259048 273.377143,113.186667 276.485714,109.56 L276.485714,126.398095 C276.485714,132.485714 281.278095,137.148571 287.106667,137.148571 C293.194286,137.148571 297.986667,132.35619 297.986667,126.398095 L297.986667,48.0361905 Z M322.855238,63.4495238 C322.855238,61.247619 324.798095,59.3047619 327,59.3047619 C329.460952,59.3047619 331.144762,61.247619 331.144762,63.4495238 L331.144762,71.6095238 C332.310476,71.8685714 333.994286,72.127619 335.548571,72.127619 C345.133333,72.127619 353.034286,64.2266667 353.034286,54.7714286 C353.034286,44.927619 345.133333,37.2857143 335.548571,37.2857143 C329.979048,37.2857143 325.057143,39.7466667 321.948571,43.7619048 C320.394286,39.8761905 316.508571,37.2857143 312.104762,37.2857143 C306.017143,37.2857143 301.224762,42.0780952 301.224762,48.0361905 L301.224762,104.508571 C301.224762,110.466667 306.017143,115.259048 312.104762,115.259048 C318.062857,115.259048 322.855238,110.466667 322.855238,104.508571 L322.855238,63.4495238 Z M406.139048,62.8019048 C406.139048,48.8133333 394.611429,37.2857143 380.493333,37.2857143 C366.11619,37.2857143 354.718095,48.8133333 354.718095,62.8019048 L354.718095,89.4838095 C354.718095,103.731429 366.375238,115.259048 380.493333,115.259048 C394.740952,115.259048 406.139048,103.731429 406.139048,89.4838095 L406.139048,62.8019048 Z M384.638095,89.2247619 C384.638095,91.4266667 382.954286,93.3695238 380.493333,93.3695238 C378.291429,93.3695238 376.348571,91.4266667 376.348571,89.2247619 L376.348571,63.4495238 C376.348571,61.247619 378.161905,59.3047619 380.493333,59.3047619 C382.824762,59.3047619 384.638095,61.247619 384.638095,63.4495238 L384.638095,89.2247619 Z" id="pyro-4" fill="#FFA400" sketch:type="MSShapeGroup"></path>
            <path d="M437.422857,21.2857143 C423.045714,21.2857143 411.647619,33.072381 411.647619,47.1904762 L411.647619,73.7428571 C411.647619,87.7314286 423.434286,99.2590476 437.422857,99.2590476 C451.670476,99.2590476 463.327619,87.7314286 463.327619,73.7428571 L463.327619,73.2247619 C463.327619,67.1371429 458.405714,62.3447619 452.447619,62.3447619 C446.36,62.3447619 441.697143,67.2666667 441.697143,73.2247619 C441.697143,75.4266667 439.754286,77.3695238 437.422857,77.3695238 C435.220952,77.3695238 433.278095,75.4266667 433.278095,73.2247619 L433.278095,47.4495238 C433.278095,45.247619 435.220952,43.3047619 437.422857,43.3047619 C439.754286,43.3047619 441.697143,45.247619 441.697143,47.4495238 C441.697143,53.407619 446.36,58.3295238 452.447619,58.3295238 C458.405714,58.3295238 463.327619,53.5371429 463.327619,47.4495238 L463.327619,46.9314286 C463.327619,32.9428571 451.670476,21.2857143 437.422857,21.2857143 L437.422857,21.2857143 Z M466.565714,32.0361905 L466.565714,81.7733333 C466.565714,91.6171429 474.466667,99.2590476 483.921905,99.2590476 C489.491429,99.2590476 494.28381,96.7980952 497.392381,92.7828571 C499.205714,96.6685714 503.091429,99.2590476 507.495238,99.2590476 C513.32381,99.2590476 518.245714,94.4666667 518.245714,88.5085714 L518.245714,32.0361905 C518.245714,26.0780952 513.453333,21.2857143 507.365714,21.2857143 C501.537143,21.2857143 496.615238,25.9485714 496.615238,32.0361905 L496.615238,73.2247619 C496.615238,75.4266667 494.672381,77.3695238 492.470476,77.3695238 C490.139048,77.3695238 488.19619,75.4266667 488.19619,73.2247619 L488.19619,32.0361905 C488.19619,26.0780952 483.40381,21.2857143 477.31619,21.2857143 C471.487619,21.2857143 466.565714,25.9485714 466.565714,32.0361905 L466.565714,32.0361905 Z M570.702857,29.8342857 C567.594286,24.7828571 562.024762,21.2857143 555.807619,21.2857143 C550.238095,21.2857143 545.445714,23.7466667 542.337143,27.7619048 C540.52381,23.8761905 536.638095,21.2857143 532.234286,21.2857143 C526.405714,21.2857143 521.48381,26.0780952 521.48381,32.0361905 L521.48381,88.5085714 C521.48381,94.4666667 526.27619,99.2590476 532.36381,99.2590476 C538.192381,99.2590476 543.114286,94.5961905 543.114286,88.5085714 L543.114286,47.32 C543.114286,45.1180952 545.057143,43.1752381 547.259048,43.1752381 C549.590476,43.1752381 551.533333,45.1180952 551.533333,47.32 L551.533333,88.5085714 C551.533333,94.4666667 556.325714,99.2590476 562.413333,99.2590476 C568.241905,99.2590476 573.16381,94.5961905 573.16381,88.5085714 L573.16381,47.32 C573.16381,45.1180952 575.106667,43.1752381 577.308571,43.1752381 C579.64,43.1752381 581.582857,45.1180952 581.582857,47.32 L581.582857,88.5085714 C581.582857,94.4666667 586.375238,99.2590476 592.462857,99.2590476 C598.291429,99.2590476 603.213333,94.5961905 603.213333,88.5085714 L603.213333,38.7714286 C603.213333,28.927619 595.312381,21.2857143 585.857143,21.2857143 C579.251429,21.2857143 573.681905,24.6533333 570.702857,29.8342857 L570.702857,29.8342857 Z M606.451429,32.0361905 L606.451429,81.7733333 C606.451429,91.6171429 614.352381,99.2590476 623.807619,99.2590476 C629.377143,99.2590476 634.169524,96.7980952 637.278095,92.7828571 C639.091429,96.6685714 642.977143,99.2590476 647.380952,99.2590476 C653.209524,99.2590476 658.131429,94.4666667 658.131429,88.5085714 L658.131429,32.0361905 C658.131429,26.0780952 653.339048,21.2857143 647.251429,21.2857143 C641.422857,21.2857143 636.500952,25.9485714 636.500952,32.0361905 L636.500952,73.2247619 C636.500952,75.4266667 634.558095,77.3695238 632.35619,77.3695238 C630.024762,77.3695238 628.081905,75.4266667 628.081905,73.2247619 L628.081905,32.0361905 C628.081905,26.0780952 623.289524,21.2857143 617.201905,21.2857143 C611.373333,21.2857143 606.451429,25.9485714 606.451429,32.0361905 L606.451429,32.0361905 Z M661.369524,10.2761905 L661.369524,88.5085714 C661.369524,94.4666667 666.161905,99.2590476 672.12,99.2590476 C678.207619,99.2590476 682.870476,94.4666667 682.870476,88.5085714 L682.870476,10.2761905 C682.870476,4.18857143 678.078095,-0.474285714 672.249524,-0.474285714 C666.161905,-0.474285714 661.369524,4.31809524 661.369524,10.2761905 L661.369524,10.2761905 Z M686.108571,32.0361905 L686.108571,81.7733333 C686.108571,91.6171429 694.009524,99.2590476 703.464762,99.2590476 C709.034286,99.2590476 713.826667,96.7980952 716.935238,92.7828571 C718.748571,96.6685714 722.634286,99.2590476 727.038095,99.2590476 C732.866667,99.2590476 737.788571,94.4666667 737.788571,88.5085714 L737.788571,32.0361905 C737.788571,26.0780952 732.99619,21.2857143 726.908571,21.2857143 C721.08,21.2857143 716.158095,25.9485714 716.158095,32.0361905 L716.158095,73.2247619 C716.158095,75.4266667 714.215238,77.3695238 712.013333,77.3695238 C709.681905,77.3695238 707.739048,75.4266667 707.739048,73.2247619 L707.739048,32.0361905 C707.739048,26.0780952 702.946667,21.2857143 696.859048,21.2857143 C691.030476,21.2857143 686.108571,25.9485714 686.108571,32.0361905 L686.108571,32.0361905 Z M766.801905,51.5942857 C764.6,51.5942857 762.657143,49.7809524 762.657143,47.4495238 C762.657143,45.247619 764.6,43.4342857 766.801905,43.4342857 L779.495238,43.4342857 C785.453333,43.4342857 790.375238,38.6419048 790.375238,32.5542857 C790.375238,26.5961905 785.582857,21.8038095 779.495238,21.8038095 L766.801905,21.8038095 C752.813333,21.8038095 741.026667,33.2019048 741.026667,47.1904762 C741.026667,59.1066667 751.129524,69.2095238 763.045714,69.2095238 L766.931429,69.2095238 C769.133333,69.2095238 771.07619,71.0228571 771.07619,73.3542857 C771.07619,75.5561905 769.133333,77.3695238 766.931429,77.3695238 L754.238095,77.3695238 C748.28,77.3695238 743.358095,82.1619048 743.358095,88.2495238 C743.358095,94.207619 748.150476,99 754.238095,99 L766.931429,99 C780.92,99 792.706667,87.6019048 792.706667,73.6133333 C792.706667,61.6971429 782.60381,51.5942857 770.687619,51.5942857 L766.801905,51.5942857 L766.801905,51.5942857 Z" id="cumulus-4" fill="#00B3FF" sketch:type="MSShapeGroup"></path>
        </g>
    </g>
</svg>